<?xml version="1.0" encoding="utf-8"?>
<!-- Generator: Adobe Illustrator 23.0.4, SVG Export Plug-In . SVG Version: 6.00 Build 0)  -->
<svg version="1.1" id="Layer_1" xmlns="http://www.w3.org/2000/svg" xmlns:xlink="http://www.w3.org/1999/xlink" x="0px" y="0px"
	 viewBox="0 0 200 200" style="enable-background:new 0 0 200 200;" xml:space="preserve">
<style type="text/css">
	.st0{fill:#FFFFFF;}
</style>
<path class="st0" d="M110.7,88.4v15.9c0,0.4-0.3,0.7-0.7,0.7h-2.5c-0.2,0-0.5-0.1-0.6-0.3l-7.3-9.8v9.4c0,0.4-0.3,0.7-0.7,0.7h-2.5
	c-0.4,0-0.7-0.3-0.7-0.7V88.5c0-0.4,0.3-0.7,0.7-0.7h2.5c0.2,0,0.5,0.1,0.6,0.3l7.3,9.8v-9.4c0-0.4,0.3-0.7,0.7-0.7h2.5
	C110.4,87.7,110.7,88.1,110.7,88.4L110.7,88.4z M92.4,87.7h-2.5c-0.4,0-0.7,0.3-0.7,0.7v15.9c0,0.4,0.3,0.7,0.7,0.7h2.5
	c0.4,0,0.7-0.3,0.7-0.7V88.4C93.1,88.1,92.8,87.7,92.4,87.7L92.4,87.7z M86.3,101h-6.9V88.4c0-0.4-0.3-0.7-0.7-0.7h-2.5
	c-0.4,0-0.7,0.3-0.7,0.7v15.9c0,0.2,0.1,0.4,0.2,0.5c0.1,0.1,0.3,0.2,0.5,0.2h10.2c0.4,0,0.7-0.3,0.7-0.7v-2.5
	C87,101.4,86.7,101,86.3,101L86.3,101z M124.1,87.7h-10.2c-0.4,0-0.7,0.3-0.7,0.7v15.9c0,0.4,0.3,0.7,0.7,0.7h10.2
	c0.4,0,0.7-0.3,0.7-0.7v-2.5c0-0.4-0.3-0.7-0.7-0.7h-6.9v-2.7h6.9c0.4,0,0.7-0.3,0.7-0.7v-2.6c0-0.4-0.3-0.7-0.7-0.7h-6.9v-2.7h6.9
	c0.4,0,0.7-0.3,0.7-0.7v-2.5C124.8,88.1,124.5,87.7,124.1,87.7L124.1,87.7z M150,68.2v63.7c0,10-8.2,18.1-18.2,18.1H68.1
	c-10,0-18.1-8.2-18.1-18.2V68.1c0-10,8.2-18.1,18.2-18.1h63.7C141.9,50,150,58.2,150,68.2z M136.2,95.6c0-16.3-16.3-29.6-36.4-29.6
	S63.4,79.3,63.4,95.6c0,14.6,12.9,26.8,30.4,29.2c4.3,0.9,3.8,2.5,2.8,8.2c-0.2,0.9-0.7,3.6,3.1,2c3.9-1.6,21-12.3,28.6-21.1
	C133.7,108,136.2,102.1,136.2,95.6z"/>
</svg>
