<?xml version="1.0" encoding="utf-8"?>
<!-- Generator: Adobe Illustrator 23.0.4, SVG Export Plug-In . SVG Version: 6.00 Build 0)  -->
<svg version="1.1" id="Layer_1" xmlns="http://www.w3.org/2000/svg" xmlns:xlink="http://www.w3.org/1999/xlink" x="0px" y="0px"
	 viewBox="0 0 200 200" style="enable-background:new 0 0 200 200;" xml:space="preserve">
<style type="text/css">
	.st0{fill:#FFFFFF;}
</style>
<path class="st0" d="M139.7,79.6c0.1,0.9,0.1,1.8,0.1,2.7c0,27.1-20.6,58.3-58.3,58.3c-11.6,0-22.4-3.4-31.5-9.2
	c1.6,0.2,3.2,0.3,4.9,0.3c9.6,0,18.4-3.2,25.4-8.8c-9-0.2-16.6-6.1-19.2-14.2c1.3,0.2,2.5,0.3,3.9,0.3c1.8,0,3.7-0.3,5.4-0.7
	c-9.4-1.9-16.4-10.2-16.4-20.1v-0.3c2.7,1.5,5.9,2.5,9.3,2.6c-5.5-3.7-9.1-10-9.1-17.1c0-3.8,1-7.3,2.8-10.4
	c10.1,12.5,25.3,20.6,42.3,21.5c-0.3-1.5-0.5-3.1-0.5-4.7c0-11.3,9.1-20.5,20.5-20.5c5.9,0,11.2,2.5,15,6.5c4.6-0.9,9.1-2.6,13-4.9
	c-1.5,4.8-4.8,8.8-9,11.3c4.1-0.4,8.1-1.6,11.8-3.2C147.2,73.1,143.7,76.7,139.7,79.6L139.7,79.6z"/>
</svg>
